<mxfile host="Electron" modified="2023-12-14T20:35:33.788Z" agent="Mozilla/5.0 (Macintosh; Intel Mac OS X 10_15_7) AppleWebKit/537.36 (KHTML, like Gecko) draw.io/22.0.3 Chrome/114.0.5735.289 Electron/25.8.4 Safari/537.36" etag="7_Th57k9L2faVGqnoijK" version="22.0.3" type="device">
  <diagram name="Page-1" id="PTjsRKXmOJ8RHzs1RWpK">
    <mxGraphModel dx="1013" dy="711" grid="1" gridSize="10" guides="1" tooltips="1" connect="1" arrows="1" fold="1" page="1" pageScale="1" pageWidth="850" pageHeight="1100" math="0" shadow="0">
      <root>
        <mxCell id="0" />
        <mxCell id="1" parent="0" />
        <mxCell id="1CVELyHsgRLIgKCx8Tu4-1" value="&lt;font style=&quot;font-size: 24px;&quot;&gt;MotorInterface&lt;/font&gt;" style="rounded=1;whiteSpace=wrap;html=1;" vertex="1" parent="1">
          <mxGeometry x="335" y="100" width="180" height="60" as="geometry" />
        </mxCell>
        <mxCell id="1CVELyHsgRLIgKCx8Tu4-3" value="&lt;font style=&quot;font-size: 24px;&quot;&gt;begin&lt;span style=&quot;white-space: pre;&quot;&gt;&#x9;&lt;/span&gt;update&lt;span style=&quot;white-space: pre;&quot;&gt;&#x9;&lt;/span&gt;setTarget&lt;/font&gt;" style="rounded=0;whiteSpace=wrap;html=1;" vertex="1" parent="1">
          <mxGeometry x="255" y="180" width="340" height="40" as="geometry" />
        </mxCell>
        <mxCell id="1CVELyHsgRLIgKCx8Tu4-4" value="&lt;font style=&quot;font-size: 21px;&quot;&gt;AM_Stepper&lt;/font&gt;" style="whiteSpace=wrap;html=1;rounded=1;fontSize=21;" vertex="1" parent="1">
          <mxGeometry x="635" y="263" width="170" height="60" as="geometry" />
        </mxCell>
        <mxCell id="1CVELyHsgRLIgKCx8Tu4-6" value="&lt;font style=&quot;font-size: 21px;&quot;&gt;AM_Brushless&lt;/font&gt;" style="whiteSpace=wrap;html=1;rounded=1;fontSize=21;" vertex="1" parent="1">
          <mxGeometry x="242" y="263" width="170" height="60" as="geometry" />
        </mxCell>
        <mxCell id="1CVELyHsgRLIgKCx8Tu4-11" value="&lt;font style=&quot;font-size: 21px;&quot;&gt;AM_Servo&lt;br style=&quot;font-size: 21px;&quot;&gt;&lt;/font&gt;" style="whiteSpace=wrap;html=1;rounded=1;fontSize=21;" vertex="1" parent="1">
          <mxGeometry x="45" y="263" width="170" height="60" as="geometry" />
        </mxCell>
        <mxCell id="1CVELyHsgRLIgKCx8Tu4-12" value="&lt;font style=&quot;font-size: 21px;&quot;&gt;AM_DC&lt;/font&gt;" style="whiteSpace=wrap;html=1;rounded=1;fontSize=21;" vertex="1" parent="1">
          <mxGeometry x="438" y="263" width="170" height="60" as="geometry" />
        </mxCell>
        <mxCell id="1CVELyHsgRLIgKCx8Tu4-14" value="&lt;font style=&quot;font-size: 24px;&quot;&gt;Sensors&lt;br&gt;&lt;/font&gt;" style="rounded=1;whiteSpace=wrap;html=1;" vertex="1" parent="1">
          <mxGeometry x="329" y="382" width="180" height="60" as="geometry" />
        </mxCell>
        <mxCell id="1CVELyHsgRLIgKCx8Tu4-15" value="" style="shape=flexArrow;endArrow=classic;html=1;rounded=0;endWidth=13;endSize=4.5;" edge="1" parent="1">
          <mxGeometry width="50" height="50" relative="1" as="geometry">
            <mxPoint x="425" y="220" as="sourcePoint" />
            <mxPoint x="425" y="250" as="targetPoint" />
          </mxGeometry>
        </mxCell>
        <mxCell id="1CVELyHsgRLIgKCx8Tu4-20" value="&lt;font style=&quot;font-size: 21px;&quot;&gt;AM_Current&lt;/font&gt;" style="whiteSpace=wrap;html=1;rounded=1;fontSize=21;" vertex="1" parent="1">
          <mxGeometry x="635" y="482" width="170" height="60" as="geometry" />
        </mxCell>
        <mxCell id="1CVELyHsgRLIgKCx8Tu4-21" value="&lt;font style=&quot;font-size: 21px;&quot;&gt;AM_LimitSwitch&lt;/font&gt;" style="whiteSpace=wrap;html=1;rounded=1;fontSize=21;" vertex="1" parent="1">
          <mxGeometry x="242" y="482" width="170" height="60" as="geometry" />
        </mxCell>
        <mxCell id="1CVELyHsgRLIgKCx8Tu4-22" value="&lt;font style=&quot;font-size: 21px;&quot;&gt;AM_Encoder&lt;br style=&quot;font-size: 21px;&quot;&gt;&lt;/font&gt;" style="whiteSpace=wrap;html=1;rounded=1;fontSize=21;" vertex="1" parent="1">
          <mxGeometry x="45" y="482" width="170" height="60" as="geometry" />
        </mxCell>
        <mxCell id="1CVELyHsgRLIgKCx8Tu4-23" value="&lt;font style=&quot;font-size: 21px;&quot;&gt;AM_Inertial&lt;/font&gt;" style="whiteSpace=wrap;html=1;rounded=1;fontSize=21;" vertex="1" parent="1">
          <mxGeometry x="438" y="482" width="170" height="60" as="geometry" />
        </mxCell>
        <mxCell id="1CVELyHsgRLIgKCx8Tu4-24" value="" style="endArrow=none;html=1;rounded=0;" edge="1" parent="1">
          <mxGeometry width="50" height="50" relative="1" as="geometry">
            <mxPoint y="350" as="sourcePoint" />
            <mxPoint x="850" y="350" as="targetPoint" />
          </mxGeometry>
        </mxCell>
      </root>
    </mxGraphModel>
  </diagram>
</mxfile>
